<svg width="37" height="38" viewBox="0 0 37 38" fill="none" xmlns="http://www.w3.org/2000/svg">
<path d="M10.1276 2.3197C10.1276 1.89872 10.4411 1.54369 10.8588 1.49144L15.8668 0.865454C16.365 0.803189 16.805 1.1916 16.805 1.69366V18.1655C16.805 18.6676 16.365 19.056 15.8668 18.9938L10.8588 18.3677C10.4411 18.3155 10.1276 17.9605 10.1276 17.5395V2.3197Z" fill="#311830"/>
<path d="M0.111359 4.40633C0.111359 3.9854 0.424807 3.63032 0.842502 3.57812L5.85054 2.95213C6.34876 2.88982 6.78877 3.27828 6.78877 3.78034V16.9135C6.78877 17.4155 6.34876 17.804 5.85054 17.7417L0.842502 17.1157C0.424807 17.0635 0.111359 16.7084 0.111359 16.2875V4.40633Z" fill="#311830"/>
<path d="M26.1889 2.25952C26.5601 2.35244 26.8211 2.68627 26.8211 3.06927V10.0275C26.8211 10.4484 26.5075 10.8035 26.0897 10.8557L21.0818 11.4817C20.5836 11.544 20.1436 11.1555 20.1436 10.6535V1.81724C20.1436 1.27426 20.6539 0.875836 21.1807 1.0075L26.1889 2.25952Z" fill="#311830"/>
<path d="M36.0026 5.15595C36.0026 4.77296 35.7416 4.43907 35.3703 4.34621L30.3623 3.09418C29.8353 2.96247 29.3249 3.3609 29.3249 3.90393V10.2361C29.3249 10.7382 29.7649 11.1266 30.2632 11.0644L35.2712 10.4383C35.6889 10.3861 36.0026 10.0311 36.0026 9.61014V5.15595Z" fill="#311830"/>
<path d="M36.0025 13.6855L19.7262 14.1029C19.9617 17.1643 22.5145 19.5283 25.5849 19.5283H29.3248V23.0805L0.111359 20.363V37.764L36.0025 35.2602V13.6855Z" fill="#311830"/>
</svg>
