<svg width="33" height="35" viewBox="0 0 33 35" fill="none" xmlns="http://www.w3.org/2000/svg">
<path fill-rule="evenodd" clip-rule="evenodd" d="M26.0326 6.45637H11.8308V0.431396H32.0574V20.658H26.0326V6.45637Z" fill="#311830"/>
<path fill-rule="evenodd" clip-rule="evenodd" d="M14.9391 18.4451C14.0191 17.8304 12.9375 17.5023 11.8309 17.5023V11.4773C14.1291 11.4773 16.3756 12.1588 18.2865 13.4355C20.1973 14.7123 21.6866 16.527 22.5661 18.6503C23.4455 20.7736 23.6758 23.1098 23.2274 25.3637C22.779 27.6179 21.6724 29.6881 20.0472 31.3134C18.4222 32.9383 16.3518 34.0449 14.0978 34.4932C11.8438 34.9416 9.50751 34.7114 7.38429 33.8319C5.2611 32.9524 3.44638 31.4633 2.1696 29.5523C0.892819 27.6417 0.211349 25.395 0.211349 23.0967H6.23633C6.23633 24.2033 6.56445 25.2851 7.1792 26.2049C7.79391 27.1251 8.66768 27.8422 9.68996 28.2658C10.7123 28.689 11.8371 28.8 12.9224 28.5839C14.0076 28.3682 15.0045 27.8354 15.7869 27.053C16.5693 26.2704 17.1022 25.2737 17.3181 24.1885C17.5339 23.1033 17.4232 21.978 16.9997 20.9559C16.5763 19.9336 15.8592 19.0599 14.9391 18.4451Z" fill="#311830"/>
</svg>
