<svg width="187" height="35" viewBox="0 0 187 35" fill="none" xmlns="http://www.w3.org/2000/svg">
<path d="M55.762 18.6918V27.9199H51.5151V6.49927H55.762V13.5189C56.7838 12.3055 58.508 11.7946 60.0088 11.7946C64.0002 11.7946 65.8522 14.5727 65.8522 18.0212V27.9199H61.6054V18.7556C61.6054 16.9994 60.7432 15.6264 58.6996 15.6264C56.9115 15.6264 55.8578 16.9675 55.762 18.6918Z" fill="black"/>
<path fill-rule="evenodd" clip-rule="evenodd" d="M43.5448 20.6129H39.4895V27.9199H35.083V6.49929H43.5448C48.0151 6.49929 50.9847 9.46889 50.9847 13.5561C50.9847 17.6752 48.0151 20.6129 43.5448 20.6129ZM39.5214 16.8131H43.0019C45.2052 16.8131 46.5463 15.5358 46.5463 13.588C46.5463 11.5764 45.2052 10.331 43.0019 10.331H39.5214V16.8131Z" fill="black"/>
<path d="M67.7676 27.9199H72.0144V12.2097H67.7676V27.9199Z" fill="black"/>
<path d="M78.4132 27.9199H74.1663V6.49927H78.4132V27.9199Z" fill="black"/>
<path fill-rule="evenodd" clip-rule="evenodd" d="M84.2074 18.8834C81.5891 19.2665 79.5135 20.8312 79.5135 23.6411C79.5135 26.0998 81.5571 28.3669 84.9099 28.3669C87.2409 28.3669 88.7416 27.2813 89.5399 26.036C89.5399 26.6426 89.6038 27.5048 89.6996 27.9199H93.5952C93.4994 27.3771 93.4036 26.2595 93.4036 25.4293V17.7019C93.4036 14.5407 91.5516 11.7308 86.5703 11.7308C82.3554 11.7308 80.0883 14.4449 79.8328 16.9036L83.6007 17.7019C83.7285 16.3289 84.7502 15.1474 86.6023 15.1474C88.3904 15.1474 89.2525 16.0734 89.2525 17.191C89.2525 17.7338 88.9652 18.1809 88.0711 18.3086L84.2074 18.8834ZM89.2525 21.5656C89.2525 24.3436 87.5921 25.2057 85.804 25.2057C84.4309 25.2057 83.7604 24.3117 83.7604 23.3857C83.7604 22.1723 84.6225 21.5656 85.7082 21.4059L89.2525 20.8631V21.5656Z" fill="black"/>
<path fill-rule="evenodd" clip-rule="evenodd" d="M110.203 6.49927V25.078C110.203 26.1317 110.267 27.2813 110.331 27.9199H106.275C106.212 27.6006 106.116 26.8342 106.116 26.0998C105.413 27.3451 103.817 28.3031 101.709 28.3031C97.2388 28.3031 94.0457 24.7906 94.0457 20.0329C94.0457 15.4348 97.143 11.8266 101.581 11.8266C104.296 11.8266 105.573 12.9442 106.02 13.7744V6.49927H110.203ZM98.3245 20.0329C98.3245 22.8428 99.9849 24.5033 102.22 24.5033C104.391 24.5033 106.084 22.8428 106.084 20.001C106.084 17.191 104.391 15.6264 102.22 15.6264C100.049 15.6264 98.3245 17.2229 98.3245 20.0329Z" fill="black"/>
<path fill-rule="evenodd" clip-rule="evenodd" d="M126.497 23.4176L122.952 22.3639C122.442 23.7688 121.356 24.7587 119.376 24.7587C117.269 24.7587 115.512 23.2579 115.417 21.1824H126.656C126.656 21.1668 126.66 21.1166 126.666 21.0409C126.684 20.8075 126.72 20.3312 126.72 19.8732C126.72 14.8281 123.815 11.7308 118.961 11.7308C114.938 11.7308 111.234 14.9878 111.234 20.001C111.234 25.3015 115.033 28.3989 119.344 28.3989C123.208 28.3989 125.699 26.1317 126.497 23.4176ZM122.537 18.2767H115.512C115.608 16.8398 116.822 15.1793 119.025 15.1793C121.452 15.1793 122.473 16.712 122.537 18.2767Z" fill="black"/>
<path d="M131.917 27.9199H127.67V6.49927H131.917V27.9199Z" fill="black"/>
<path fill-rule="evenodd" clip-rule="evenodd" d="M134.068 33.9868H138.315V26.3872C139.082 27.4409 140.678 28.3031 142.85 28.3031C147.288 28.3031 150.258 24.7906 150.258 20.0329C150.258 15.3709 147.607 11.8585 143.009 11.8585C140.646 11.8585 138.89 12.9122 138.188 14.1256V12.2097H134.068V33.9868ZM142.179 15.6583C144.35 15.6583 146.075 17.2868 146.075 20.0648C146.075 22.8748 144.35 24.5033 142.179 24.5033C140.008 24.5033 138.251 22.8428 138.251 20.0648C138.251 17.2868 140.008 15.6583 142.179 15.6583Z" fill="black"/>
<path d="M155.472 18.6918V27.9199H151.225V6.49927H155.472V13.5189C156.494 12.3055 158.218 11.7946 159.719 11.7946C163.71 11.7946 165.562 14.5727 165.562 18.0212V27.9199H161.316V18.7556C161.316 16.9994 160.453 15.6264 158.41 15.6264C156.622 15.6264 155.568 16.9675 155.472 18.6918Z" fill="black"/>
<path d="M167.478 27.9199H171.725V12.2097H167.478V27.9199Z" fill="black"/>
<path fill-rule="evenodd" clip-rule="evenodd" d="M172.919 23.6411C172.919 20.8312 174.994 19.2665 177.612 18.8834L181.476 18.3086C182.37 18.1809 182.658 17.7338 182.658 17.191C182.658 16.0734 181.795 15.1474 180.007 15.1474C178.155 15.1474 177.133 16.3289 177.006 17.7019L173.238 16.9036C173.493 14.4449 175.76 11.7308 179.975 11.7308C184.957 11.7308 186.809 14.5407 186.809 17.7019V25.4293C186.809 26.2595 186.904 27.3771 187 27.9199H183.105C183.009 27.5048 182.945 26.6426 182.945 26.036C182.147 27.2813 180.646 28.3669 178.315 28.3669C174.962 28.3669 172.919 26.0998 172.919 23.6411ZM179.209 25.2057C180.997 25.2057 182.658 24.3436 182.658 21.5656V20.8631L179.113 21.4059C178.028 21.5656 177.165 22.1723 177.165 23.3857C177.165 24.3117 177.836 25.2057 179.209 25.2057Z" fill="black"/>
<path d="M72.0146 10.2337C72.0146 10.6824 71.6509 11.0461 71.2022 11.0461H68.5802C68.1315 11.0461 67.7678 10.6824 67.7678 10.2337V7.60966C67.7678 7.16098 68.1315 6.79725 68.5802 6.79725H71.2022C71.6509 6.79725 72.0146 7.16098 72.0146 7.60966V10.2337Z" fill="black"/>
<path d="M170.791 11.0461C171.24 11.0461 171.603 10.6824 171.603 10.2337V7.60966C171.603 7.16098 171.24 6.79725 170.791 6.79725H168.169C167.72 6.79725 167.356 7.16098 167.356 7.60966V10.2337C167.356 10.6824 167.72 11.0461 168.169 11.0461H170.791Z" fill="black"/>
<path fill-rule="evenodd" clip-rule="evenodd" d="M1.62482 0C0.727518 0 0 0.727469 0 1.62482V9.74891C0 10.6463 0.727518 11.3737 1.62482 11.3737H9.74891C10.6462 11.3737 11.3737 12.1012 11.3737 12.9985V21.2931C11.3737 22.0963 12.0247 22.7474 12.828 22.7474H17.0606C23.3421 22.7474 28.4343 17.6553 28.4343 11.3737C28.4343 5.09218 23.3421 0 17.0606 0H1.62482ZM1.62482 22.7474C0.727456 22.7474 0 23.4749 0 24.3723V32.4964C0 33.3937 0.727456 34.1212 1.62482 34.1212H9.74891C10.6463 34.1212 11.3737 33.3937 11.3737 32.4964V24.3723C11.3737 23.4749 10.6463 22.7474 9.74891 22.7474H1.62482Z" fill="url(#paint0_linear_10_13)"/>
<defs>
<linearGradient id="paint0_linear_10_13" x1="-0.4062" y1="36.5584" x2="12.2535" y2="13.3332" gradientUnits="userSpaceOnUse">
<stop stop-color="#1AB4D7"/>
<stop offset="1" stop-color="#FF9084"/>
</linearGradient>
</defs>
</svg>
