<svg width="260" height="48" viewBox="0 0 260 48" fill="none" xmlns="http://www.w3.org/2000/svg">
<path d="M77.7213 26.3779V39.1353H71.8228V9.52246H77.7213V19.2267C79.1405 17.5493 81.5354 16.843 83.6198 16.843C89.1635 16.843 91.7358 20.6835 91.7358 25.4509V39.1353H85.8373V26.4662C85.8373 24.0383 84.6399 22.1402 81.8015 22.1402C79.3179 22.1402 77.8544 23.9942 77.7213 26.3779Z" fill="white"/>
<path fill-rule="evenodd" clip-rule="evenodd" d="M60.7527 29.0337H55.1203V39.1353H49V9.5225H60.7527C66.9616 9.5225 71.0862 13.6278 71.0862 19.2781C71.0862 24.9726 66.9616 29.0337 60.7527 29.0337ZM55.1646 23.7807H59.9987C63.0589 23.7807 64.9215 22.015 64.9215 19.3223C64.9215 16.5412 63.0589 14.8197 59.9987 14.8197H55.1646V23.7807Z" fill="white"/>
<path d="M94.3961 39.1353H100.295V17.4169H94.3961V39.1353Z" fill="white"/>
<path d="M109.182 39.1353H103.283V9.52246H109.182V39.1353Z" fill="white"/>
<path fill-rule="evenodd" clip-rule="evenodd" d="M117.23 26.6428C113.593 27.1725 110.71 29.3355 110.71 33.2201C110.71 36.6191 113.549 39.7533 118.205 39.7533C121.443 39.7533 123.527 38.2524 124.636 36.5308C124.636 37.3695 124.725 38.5614 124.858 39.1353H130.268C130.135 38.3848 130.002 36.8398 130.002 35.6921V25.0095C130.002 20.6393 127.43 16.7547 120.511 16.7547C114.657 16.7547 111.509 20.5069 111.154 23.9059L116.387 25.0095C116.564 23.1113 117.984 21.478 120.556 21.478C123.039 21.478 124.237 22.7582 124.237 24.3032C124.237 25.0536 123.838 25.6716 122.596 25.8482L117.23 26.6428ZM124.237 30.3508C124.237 34.1912 121.931 35.3831 119.447 35.3831C117.54 35.3831 116.609 34.1471 116.609 32.867C116.609 31.1895 117.806 30.3508 119.314 30.1301L124.237 29.3797V30.3508Z" fill="white"/>
<path fill-rule="evenodd" clip-rule="evenodd" d="M153.335 9.52246V35.2065C153.335 36.6633 153.424 38.2524 153.513 39.1353H147.88C147.791 38.6938 147.658 37.6344 147.658 36.6191C146.683 38.3407 144.465 39.665 141.538 39.665C135.329 39.665 130.894 34.8092 130.894 28.2319C130.894 21.8753 135.196 16.8872 141.361 16.8872C145.13 16.8872 146.904 18.4322 147.525 19.5799V9.52246H153.335ZM136.837 28.2319C136.837 32.1165 139.143 34.412 142.248 34.412C145.263 34.412 147.614 32.1165 147.614 28.1878C147.614 24.3032 145.263 22.1402 142.248 22.1402C139.232 22.1402 136.837 24.3473 136.837 28.2319Z" fill="white"/>
<path fill-rule="evenodd" clip-rule="evenodd" d="M175.966 32.9111L171.043 31.4544C170.334 33.3967 168.826 34.7651 166.076 34.7651C163.149 34.7651 160.71 32.6904 160.577 29.8211H176.188C176.188 29.7995 176.193 29.7301 176.201 29.6255C176.226 29.3029 176.276 28.6444 176.276 28.0112C176.276 21.0366 172.241 16.7547 165.499 16.7547C159.911 16.7547 154.767 21.2573 154.767 28.1878C154.767 35.5155 160.044 39.7974 166.032 39.7974C171.398 39.7974 174.857 36.6633 175.966 32.9111ZM170.467 25.8041H160.71C160.843 23.8176 162.528 21.5222 165.588 21.5222C168.959 21.5222 170.378 23.641 170.467 25.8041Z" fill="white"/>
<path d="M183.494 39.1353H177.595V9.52246H183.494V39.1353Z" fill="white"/>
<path fill-rule="evenodd" clip-rule="evenodd" d="M186.482 47.5225H192.381V37.0164C193.445 38.4731 195.663 39.665 198.679 39.665C204.843 39.665 208.968 34.8092 208.968 28.2319C208.968 21.787 205.287 16.9313 198.9 16.9313C195.618 16.9313 193.179 18.388 192.203 20.0655V17.4169H186.482V47.5225ZM197.747 22.1843C200.763 22.1843 203.158 24.4356 203.158 28.2761C203.158 32.1607 200.763 34.412 197.747 34.412C194.731 34.412 192.292 32.1165 192.292 28.2761C192.292 24.4356 194.731 22.1843 197.747 22.1843Z" fill="white"/>
<path d="M216.21 26.3779V39.1353H210.312V9.52246H216.21V19.2267C217.629 17.5493 220.024 16.843 222.109 16.843C227.652 16.843 230.225 20.6835 230.225 25.4509V39.1353H224.326V26.4662C224.326 24.0383 223.129 22.1402 220.29 22.1402C217.807 22.1402 216.343 23.9942 216.21 26.3779Z" fill="white"/>
<path d="M232.885 39.1353H238.783V17.4169H232.885V39.1353Z" fill="white"/>
<path fill-rule="evenodd" clip-rule="evenodd" d="M240.442 33.2201C240.442 29.3355 243.325 27.1725 246.961 26.6428L252.327 25.8482C253.569 25.6716 253.968 25.0536 253.968 24.3032C253.968 22.7582 252.771 21.478 250.287 21.478C247.715 21.478 246.296 23.1113 246.119 25.0095L240.885 23.9059C241.24 20.5069 244.389 16.7547 250.243 16.7547C257.162 16.7547 259.734 20.6393 259.734 25.0095V35.6921C259.734 36.8398 259.867 38.3848 260 39.1353H254.589C254.456 38.5614 254.368 37.3695 254.368 36.5308C253.259 38.2524 251.174 39.7533 247.937 39.7533C243.28 39.7533 240.442 36.6191 240.442 33.2201ZM249.179 35.3831C251.662 35.3831 253.968 34.1912 253.968 30.3508V29.3797L249.046 30.1301C247.538 30.3508 246.34 31.1895 246.34 32.867C246.34 34.1471 247.272 35.3831 249.179 35.3831Z" fill="white"/>
<path d="M100.295 14.6852C100.295 15.3054 99.7897 15.8083 99.1665 15.8083H95.5247C94.9016 15.8083 94.3964 15.3054 94.3964 14.6852V11.0575C94.3964 10.4372 94.9016 9.93441 95.5247 9.93441H99.1665C99.7897 9.93441 100.295 10.4372 100.295 11.0575V14.6852Z" fill="white"/>
<path d="M237.487 15.8083C238.11 15.8083 238.615 15.3054 238.615 14.6852V11.0575C238.615 10.4372 238.11 9.93441 237.487 9.93441H233.845C233.222 9.93441 232.717 10.4372 232.717 11.0575V14.6852C232.717 15.3054 233.222 15.8083 233.845 15.8083H237.487Z" fill="white"/>
<path fill-rule="evenodd" clip-rule="evenodd" d="M2.2591 0C1.01152 0 0 1.01145 0 2.2591V13.5546C0 14.8023 1.01152 15.8137 2.2591 15.8137H13.5546C14.8022 15.8137 15.8137 16.8252 15.8137 18.0728V29.6054C15.8137 30.7221 16.7188 31.6275 17.8357 31.6275H23.7206C32.4542 31.6275 39.5343 24.5474 39.5343 15.8137C39.5343 7.08004 32.4542 0 23.7206 0H2.2591ZM2.2591 31.6275C1.01144 31.6275 0 32.639 0 33.8866V45.1822C0 46.4298 1.01144 47.4413 2.2591 47.4413H13.5546C14.8023 47.4413 15.8137 46.4298 15.8137 45.1822V33.8866C15.8137 32.639 14.8023 31.6275 13.5546 31.6275H2.2591Z" fill="url(#paint0_linear_1_2007)"/>
<defs>
<linearGradient id="paint0_linear_1_2007" x1="-0.564771" y1="50.8299" x2="17.0369" y2="18.5382" gradientUnits="userSpaceOnUse">
<stop stop-color="#1AB4D7"/>
<stop offset="1" stop-color="#FF9084"/>
</linearGradient>
</defs>
</svg>
