<svg width="28" height="33" viewBox="0 0 28 33" fill="none" xmlns="http://www.w3.org/2000/svg">
<path fill-rule="evenodd" clip-rule="evenodd" d="M2.15593 0.0654297C1.31264 0.0654297 0.628907 0.749114 0.628907 1.59245V9.22758C0.628907 10.0709 1.31264 10.7546 2.15593 10.7546H9.79105C10.6343 10.7546 11.3181 11.4383 11.3181 12.2816V20.077C11.3181 20.8318 11.9299 21.4438 12.6848 21.4438H16.6627C22.5661 21.4438 27.3518 16.6581 27.3518 10.7546C27.3518 4.85113 22.5661 0.0654297 16.6627 0.0654297H2.15593ZM2.15572 21.4437C1.31236 21.4437 0.628693 22.1274 0.628693 22.9707V30.6059C0.628693 31.4492 1.31236 32.1329 2.15572 32.1329H9.79084C10.6342 32.1329 11.3179 31.4492 11.3179 30.6059V22.9707C11.3179 22.1274 10.6342 21.4437 9.79084 21.4437H2.15572Z" fill="#FBFBFB"/>
</svg>
